<?xml version="1.0" encoding="utf-8"?>
<!-- Generator: Adobe Illustrator 26.0.1, SVG Export Plug-In . SVG Version: 6.00 Build 0)  -->
<svg version="1.1" id="Слой_1" xmlns="http://www.w3.org/2000/svg" xmlns:xlink="http://www.w3.org/1999/xlink" x="0px" y="0px"
	 viewBox="0 0 256 256" style="enable-background:new 0 0 256 256;" xml:space="preserve">
<style type="text/css">
	.st0{fill:#0081D5;}
	.st1{fill:#0071BC;}
	.st2{fill:#FFFFFF;}
	.st3{fill:#97C1FF;}
	.st4{fill:#4CA6FF;}
</style>
<g>
	
		<rect x="39.61" y="39.61" transform="matrix(0.7071 -0.7071 0.7071 0.7071 -53.0193 128)" class="st0" width="176.78" height="176.78"/>
</g>
<g>
	<path class="st1" d="M241.05,129.95l-111.1,111.1c-1.08,1.08-2.82,1.08-3.9,0l-111.1-111.1c-1.08-1.08-1.08-2.82,0-3.9l111.1-111.1
		c1.08-1.08,2.82-1.08,3.9,0l111.1,111.1C242.13,127.13,242.13,128.87,241.05,129.95z"/>
</g>
<g>
	<path class="st0" d="M212.59,130.17l-82.42,82.42c-1.2,1.2-3.14,1.2-4.34,0l-82.42-82.42c-1.2-1.2-1.2-3.14,0-4.34l82.42-82.42
		c1.2-1.2,3.14-1.2,4.34,0l82.42,82.42C213.79,127.03,213.79,128.97,212.59,130.17z"/>
</g>
<g>
	<path class="st2" d="M200.85,131.94l-68.91,68.91c-2.18,2.18-5.71,2.18-7.88,0l-68.91-68.91c-2.18-2.18-2.18-5.71,0-7.88
		l68.91-68.91c2.18-2.18,5.71-2.18,7.88,0l68.91,68.91C203.03,126.24,203.03,129.76,200.85,131.94z"/>
</g>
<g>
	<path class="st3" d="M189.85,131.94l-57.91,57.91c-2.18,2.18-5.71,2.18-7.88,0l-57.91-57.91c-2.18-2.18-2.18-5.71,0-7.88
		l57.91-57.91c2.18-2.18,5.71-2.18,7.88,0l57.91,57.91C192.03,126.24,192.03,129.76,189.85,131.94z"/>
</g>
<g>
	<path class="st4" d="M179.47,131.94l-47.53,47.53c-2.18,2.18-5.71,2.18-7.88,0l-47.53-47.53c-2.18-2.18-2.18-5.71,0-7.88
		l47.53-47.53c2.18-2.18,5.71-2.18,7.88,0l47.53,47.53C181.65,126.24,181.65,129.76,179.47,131.94z"/>
</g>
</svg>
