<?xml version="1.0" ?><svg viewBox="0 0 64 64" xmlns="http://www.w3.org/2000/svg"><title/><g data-name="17-R.I.P" id="_17-R.I.P"><path d="M9,55H55a4,4,0,0,1,4,4v4a0,0,0,0,1,0,0H5a0,0,0,0,1,0,0V59A4,4,0,0,1,9,55Z" style="fill:none;stroke:#000;stroke-linejoin:round;stroke-width:2px"/><path d="M55,48V24A23,23,0,0,0,32,1h0A23,23,0,0,0,9,24H9" style="fill:none;stroke:#000;stroke-linejoin:round;stroke-width:2px"/><polyline points="9 30 9 55 55 55 55 50" style="fill:none;stroke:#000;stroke-linejoin:round;stroke-width:2px"/><line style="fill:none;stroke:#000;stroke-linejoin:round;stroke-width:2px" x1="9" x2="9" y1="26" y2="28"/><path d="M18,30V16h2a4,4,0,0,1,4,4h0a4,4,0,0,1-4,4H19l4.029,2.417A2,2,0,0,1,24,28.132V30" style="fill:none;stroke:#000;stroke-linejoin:round;stroke-width:2px"/><line style="fill:none;stroke:#000;stroke-linejoin:round;stroke-width:2px" x1="32" x2="32" y1="15" y2="30"/><path d="M40,30V16h2a4,4,0,0,1,4,4h0a4,4,0,0,1-4,4H40" style="fill:none;stroke:#000;stroke-linejoin:round;stroke-width:2px"/><line style="fill:none;stroke:#000;stroke-linejoin:round;stroke-width:2px" x1="28" x2="28" y1="28" y2="30"/><line style="fill:none;stroke:#000;stroke-linejoin:round;stroke-width:2px" x1="36" x2="36" y1="28" y2="30"/><line style="fill:none;stroke:#000;stroke-linejoin:round;stroke-width:2px" x1="17" x2="31" y1="49" y2="49"/><line style="fill:none;stroke:#000;stroke-linejoin:round;stroke-width:2px" x1="33" x2="47" y1="49" y2="49"/><rect height="8" style="fill:none;stroke:#000;stroke-linejoin:round;stroke-width:2px" width="12" x="26" y="35"/></g></svg>