<?xml version="1.0" encoding="utf-8"?>
<!-- Generator: Adobe Illustrator 26.0.1, SVG Export Plug-In . SVG Version: 6.00 Build 0)  -->
<svg version="1.1" id="Слой_1" xmlns="http://www.w3.org/2000/svg" xmlns:xlink="http://www.w3.org/1999/xlink" x="0px" y="0px"
	 viewBox="0 0 256 256" style="enable-background:new 0 0 256 256;" xml:space="preserve">
<style type="text/css">
	.st0{fill:#FFFFFF;}
	.st1{fill:none;stroke:#FFFFFF;stroke-width:2;stroke-miterlimit:10;}
</style>
<g>
	<polygon points="28.54,189 36.46,90 219.54,90 227.46,189 	"/>
	<path d="M219.08,90.5l7.84,98H29.08l7.84-98H219.08 M220,89.5H36l-8,100h200L220,89.5L220,89.5z"/>
</g>
<g>
	<path d="M18.4,89c-1.05,0-1.9-0.85-1.9-1.9V68.9c0-1.05,0.85-1.9,1.9-1.9H237.6c1.05,0,1.9,0.85,1.9,1.9V87.1
		c0,1.05-0.85,1.9-1.9,1.9H18.4z"/>
	<path class="st0" d="M237.6,67.5c0.77,0,1.4,0.63,1.4,1.4V87.1c0,0.77-0.63,1.4-1.4,1.4H18.4c-0.77,0-1.4-0.63-1.4-1.4V68.9
		c0-0.77,0.63-1.4,1.4-1.4H237.6 M237.6,66.5H18.4c-1.32,0-2.4,1.07-2.4,2.4V87.1c0,1.32,1.07,2.4,2.4,2.4H237.6
		c1.32,0,2.4-1.07,2.4-2.4V68.9C240,67.57,238.93,66.5,237.6,66.5L237.6,66.5z"/>
</g>
<g>
	<polygon points="48.17,177 54.15,102 201.85,102 207.83,177 	"/>
	<path class="st0" d="M200,104l5.67,71H50.33L56,104H200 M203.69,100H52.31L46,179h164L203.69,100L203.69,100z"/>
</g>
<g>
	<polygon points="23.03,84 23,72.03 232.97,72 233,83.97 232.97,84 	"/>
	<path class="st0" d="M232,73v10H24V73H232 M232.97,71H23.03C22.46,71,22,71.46,22,72.03v11.94c0,0.57,0.46,1.03,1.03,1.03h209.94
		c0.57,0,1.03-0.46,1.03-1.03V72.03C234,71.46,233.54,71,232.97,71L232.97,71z"/>
</g>
<g>
	<path class="st1" d="M34.52,83.63c3.82-3.97,7.65-7.93,11.48-11.88"/>
</g>
<g>
	<path class="st1" d="M64.13,84.23c3.95-4.05,7.91-8.1,11.87-12.13"/>
</g>
<g>
	<path class="st1" d="M52.62,123c6.53-6.49,13.06-12.99,19.59-19.49"/>
</g>
<g>
	<path class="st1" d="M45.41,72c4.12,3.99,8.24,7.98,12.33,12"/>
</g>
<g>
	<path class="st1" d="M86.44,73.32c2.64,2.63,5.28,5.27,7.92,7.9"/>
</g>
<g>
	<path class="st1" d="M92.2,83.7c3.97-3.89,7.92-7.79,11.88-11.7"/>
</g>
<g>
	<path class="st1" d="M118.73,84c3.86-4.01,7.73-8.01,11.61-12"/>
</g>
<g>
	<path class="st1" d="M50.62,152c16.26-16.34,32.57-32.62,49-48.78"/>
</g>
<g>
	<path class="st1" d="M148.99,84.04c4-4.01,8-8.01,12.01-12.01"/>
</g>
<g>
	<path class="st1" d="M56.82,176c24.31-24.13,47.19-49.09,72.74-72.49"/>
</g>
<g>
	<path class="st1" d="M179.37,84c4.18-3.98,8.33-7.98,12.46-12"/>
</g>
<g>
	<path class="st1" d="M87.55,176c24.37-23.91,48.92-48.46,72.27-72.53"/>
</g>
<g>
	<path class="st1" d="M207.62,83c3.8-3.75,7.6-7.52,11.38-11.29"/>
</g>
<g>
	<path class="st1" d="M115.15,175.47C139,151,164,128,187.12,103.38"/>
</g>
<g>
	<path class="st1" d="M53,121.62c17.44,18.96,37.03,35.78,54.85,54.38"/>
</g>
<g>
	<path class="st1" d="M76.99,103.19c23.77,23.5,47.53,48.58,72.98,72.81"/>
</g>
<g>
	<path class="st1" d="M116.76,103.57c25.15,23.47,47.74,48.12,72.24,72.07"/>
</g>
<g>
	<path class="st1" d="M85.11,72c3.79,3.78,7.59,7.57,11.38,11.35"/>
</g>
<g>
	<path class="st1" d="M156.05,103.48c16.32,16.28,32.63,32.55,48.95,48.83"/>
</g>
<g>
	<path class="st1" d="M125,72.02c3.83,3.99,7.65,8,11.48,11.98"/>
</g>
<g>
	<path class="st1" d="M161,72.22c3.86,3.95,7.74,7.88,11.65,11.78"/>
</g>
<g>
	<path class="st1" d="M197.63,72.41c3.41,3.4,6.81,6.8,10.22,10.2"/>
</g>
<g>
	<path class="st1" d="M142.14,175.96c19.86-20.84,39.8-41.61,60.86-61.25"/>
</g>
<g>
	<path class="st1" d="M171.81,176.28c11.05-11.09,22.12-22.17,33.19-33.23"/>
</g>
<g>
	<path class="st1" d="M49,157.01c6.68,7.32,14.17,13.81,20.99,20.99"/>
</g>
<g>
	<path class="st1" d="M222.04,72c3.67,3.66,7.34,7.32,11.01,10.98"/>
</g>
<g>
	<path class="st1" d="M23,75.21c3.04,2.95,6.08,5.9,9.1,8.86"/>
</g>
</svg>
